<?xml version="1.0" encoding="UTF-8" standalone="no"?>
<svg
   xmlns="http://www.w3.org/2000/svg"
   viewBox="7400 3500 1100 1100"
   width="1024"
   height="1024"
   version="1.1">
  <defs>
    <style>
      .icon-primary { fill: #5e6061; }
      .icon-accent { fill: #4faeca; }
    </style>
  </defs>

  <!-- N Icon - Exact paths from original logo -->
  <!-- Top right square (accent blue) -->
  <path class="icon-accent"
        d="m 8153.9,4448.96 h 179.58 c 46.81,0 84.5,-37.69 84.5,-84.51 v -179.57 c 0,-46.82 -37.69,-84.51 -84.5,-84.51 H 8153.9 c -46.82,0 -84.51,37.69 -84.51,84.51 v 179.57 c 0,46.81 37.69,84.51 84.51,84.51" />

  <!-- Bottom left square (accent blue) -->
  <path class="icon-accent"
        d="m 7497.38,3899.62 h 179.58 c 46.82,0 84.5,-37.68 84.5,-84.5 v -179.58 c 0,-46.81 -37.68,-84.5 -84.5,-84.5 h -179.58 c -46.81,0 -84.5,37.69 -84.5,84.5 v 179.58 c 0,46.82 37.69,84.5 84.5,84.5" />

  <!-- Bottom left square (dark gray) -->
  <path class="icon-primary"
        d="m 7497.38,4448.96 h 179.58 c 46.82,0 84.5,-37.69 84.5,-84.51 v -179.57 c 0,-46.81 -37.68,-84.51 -84.5,-84.51 h -179.58 c -46.81,0 -84.5,37.7 -84.5,84.51 v 179.57 c 0,46.82 37.69,84.51 84.5,84.51 v 0" />

  <!-- Top right square (dark gray) -->
  <path class="icon-primary"
        d="m 8153.9,3899.62 h 179.58 c 46.81,0 84.5,-37.68 84.5,-84.5 v -179.58 c 0,-46.81 -37.69,-84.5 -84.5,-84.5 H 8153.9 c -46.82,0 -84.51,37.69 -84.51,84.5 v 179.58 c 0,46.82 37.69,84.5 84.51,84.5" />

  <!-- Diagonal connecting path -->
  <path class="icon-primary"
        d="m 7761.46,4364.45 c 52.96,-323.25 265.94,-450.93 572.02,-464.83 l -264.09,-264.08 c -104.49,236.06 -231.81,450.63 -572.01,464.83 l 264.08,264.08" />
</svg>
