<?xml version="1.0" encoding="UTF-8" standalone="no"?>
<svg
   xmlns:dc="http://purl.org/dc/elements/1.1/"
   xmlns:cc="http://creativecommons.org/ns#"
   xmlns:rdf="http://www.w3.org/1999/02/22-rdf-syntax-ns#"
   xmlns:svg="http://www.w3.org/2000/svg"
   xmlns="http://www.w3.org/2000/svg"
   viewBox="84.67 462.67 1164 141.2"
   height="141.2"
   width="1164"
   xml:space="preserve"
   id="svg2"
   version="1.1"><metadata
     id="metadata8"><rdf:RDF><cc:Work
         rdf:about=""><dc:format>image/svg+xml</dc:format><dc:type
           rdf:resource="http://purl.org/dc/dcmitype/StillImage" /></cc:Work></rdf:RDF></metadata><defs
     id="defs6" /><g
     transform="matrix(1.3333333,0,0,-1.3333333,0,1066.6667)"
     id="g10"><g
       transform="scale(0.1)"
       id="g12"><path
         id="path16"
         style="fill:#5e6061;fill-opacity:1;fill-rule:nonzero;stroke:none"
         d="M 1185.5,4439.73 715.215,3563.72 h 221.086 l 345.529,669.45 345.53,-669.45 h 222.51 l -472.94,876.01 H 1185.5" /><path
         id="path18"
         style="fill:#5e6061;fill-opacity:1;fill-rule:nonzero;stroke:none"
         d="m 2747.08,4150.21 c 0,38.92 -6.2,64.75 -18.6,77.49 -12.4,12.73 -35.09,19.1 -68.06,19.1 h -534.64 v -491.38 h 534.64 c 33.95,0 56.88,6.12 68.79,18.38 11.92,12.26 17.87,37.9 17.87,76.94 z m -816.7,-586.49 v 876.01 h 730.04 c 52.77,0 97.33,-4.82 133.7,-14.46 36.35,-9.64 65.47,-26.3 87.35,-49.98 21.87,-23.67 37.31,-53.69 46.29,-90.07 8.99,-36.37 13.49,-80.95 13.49,-133.75 v -299.46 c 0,-52.89 -4.5,-97.78 -13.49,-134.63 -8.98,-36.87 -24.43,-66.91 -46.33,-90.13 -21.9,-23.23 -50.91,-39.62 -87.01,-49.19 -36.1,-9.57 -80.77,-14.34 -134,-14.34 h -730.04" /><path
         id="path20"
         style="fill:#5e6061;fill-opacity:1;fill-rule:nonzero;stroke:none"
         d="m 3456.12,3563.72 -470.29,876.01 h 221.09 l 345.53,-669.45 345.53,669.45 h 222.51 l -472.94,-876.01 h -191.43" /><path
         id="path22"
         style="fill:#5e6061;fill-opacity:1;fill-rule:nonzero;stroke:none"
         d="m 4205.08,3563.72 v 876.01 h 845.05 V 4246.8 h -650.89 v -163.46 h 632.32 v -162 h -632.32 v -165.92 h 650.89 v -191.7 h -845.05" /><path
         id="path24"
         style="fill:#5e6061;fill-opacity:1;fill-rule:nonzero;stroke:none"
         d="m 5948.49,4135.38 c 0,39.43 -4,67.66 -11.99,84.67 -7.98,17.02 -27.12,25.52 -57.39,25.52 h -508.64 v -238.95 h 508.64 c 25.35,0 43.24,6.06 53.7,18.19 10.45,12.14 15.68,35.38 15.68,69.74 z m -34.4,-571.66 -294.5,278.43 h -249.12 v -278.43 h -195.39 v 876.01 h 708.96 c 46.69,0 86.5,-5.05 119.43,-15.15 32.93,-10.11 59.64,-26.28 80.11,-48.52 20.48,-22.23 35.24,-51.01 44.28,-86.31 9.03,-35.31 13.56,-77.28 13.56,-125.91 v -52 c 0,-53.23 -5.41,-97.15 -16.22,-131.75 -10.82,-34.6 -28.74,-62.17 -53.77,-82.71 -25.03,-20.54 -56.49,-34.47 -94.35,-41.79 -37.86,-7.31 -79.19,-10.98 -124,-10.98 l 315.56,-280.89 h -254.55" /><path
         id="path26"
         style="fill:#5e6061;fill-opacity:1;fill-rule:nonzero;stroke:none"
         d="M 6675.48,4439.73 6205.2,3563.72 h 221.08 l 345.54,669.45 345.52,-669.45 h 222.51 l -472.94,876.01 h -191.43" /><path
         id="path28"
         style="fill:#5e6061;fill-opacity:1;fill-rule:nonzero;stroke:none"
         d="m 8780.03,3563.72 v 683.08 h -310.61 v 192.93 h 815.37 V 4246.8 h -310.6 v -683.08 h -194.16" /><path
         id="path30"
         style="fill:#4faeca;fill-opacity:1;fill-rule:nonzero;stroke:none"
         d="m 8153.9,4448.96 h 179.58 c 46.81,0 84.5,-37.69 84.5,-84.51 v -179.57 c 0,-46.82 -37.69,-84.51 -84.5,-84.51 H 8153.9 c -46.82,0 -84.51,37.69 -84.51,84.51 v 179.57 c 0,46.81 37.69,84.51 84.51,84.51" /><path
         id="path32"
         style="fill:#4faeca;fill-opacity:1;fill-rule:nonzero;stroke:none"
         d="m 7497.38,3899.62 h 179.58 c 46.82,0 84.5,-37.68 84.5,-84.5 v -179.58 c 0,-46.81 -37.68,-84.5 -84.5,-84.5 h -179.58 c -46.81,0 -84.5,37.69 -84.5,84.5 v 179.58 c 0,46.82 37.69,84.5 84.5,84.5" /><path
         id="path34"
         style="fill:#5e6061;fill-opacity:1;fill-rule:nonzero;stroke:none"
         d="m 7497.38,4448.96 h 179.58 c 46.82,0 84.5,-37.69 84.5,-84.51 v -179.57 c 0,-46.81 -37.68,-84.51 -84.5,-84.51 h -179.58 c -46.81,0 -84.5,37.7 -84.5,84.51 v 179.57 c 0,46.82 37.69,84.51 84.5,84.51 v 0" /><path
         id="path36"
         style="fill:#5e6061;fill-opacity:1;fill-rule:nonzero;stroke:none"
         d="m 8153.9,3899.62 h 179.58 c 46.81,0 84.5,-37.68 84.5,-84.5 v -179.58 c 0,-46.81 -37.69,-84.5 -84.5,-84.5 H 8153.9 c -46.82,0 -84.51,37.69 -84.51,84.5 v 179.58 c 0,46.82 37.69,84.5 84.51,84.5" /><path
         id="path38"
         style="fill:#5e6061;fill-opacity:1;fill-rule:nonzero;stroke:none"
         d="m 7761.46,4364.45 c 52.96,-323.25 265.94,-450.93 572.02,-464.83 l -264.09,-264.08 c -104.49,236.06 -231.81,450.63 -572.01,464.83 l 264.08,264.08" /></g></g></svg>